M48
;DRILL file {KiCad 4.0.7-e2-6376~60~ubuntu17.10.1} date Thu Jan 11 17:20:47 2018
;FORMAT={-:-/ absolute / inch / decimal}
FMAT,2
INCH,TZ
T1C0.028
T2C0.031
T3C0.035
T4C0.039
T5C0.060
%
G90
G05
M72
T1
X2.9685Y-4.0866
X3.8307Y-4.0866
T2
X3.5118Y-3.7283
X3.5118Y-3.8268
T3
X3.9598Y-3.2846
X3.9598Y-3.3846
X3.9598Y-3.4846
X3.9598Y-3.5846
X3.9598Y-4.0846
X3.9598Y-4.2846
X4.5598Y-3.2846
X4.5598Y-3.5846
X4.5598Y-3.9846
T4
X2.4331Y-2.3031
X2.6299Y-2.3543
X2.6299Y-2.6732
X2.6299Y-3.5394
X2.6299Y-3.8858
X2.6299Y-4.752
X2.9764Y-3.3071
X3.1811Y-2.1496
X3.378Y-2.1496
X3.5827Y-3.3071
X4.0748Y-2.1512
X4.0748Y-2.4512
X4.0748Y-2.8512
X4.0748Y-2.9512
T5
X2.0945Y-3.6299
X2.0945Y-3.8299
X4.9331Y-2.2488
X4.9331Y-2.4488
T0
M30
