G04 #@! TF.FileFunction,Copper,L2,Bot,Signal*
%FSLAX46Y46*%
G04 Gerber Fmt 4.6, Leading zero omitted, Abs format (unit mm)*
G04 Created by KiCad (PCBNEW 4.0.7-e2-6376~60~ubuntu17.10.1) date Thu Jan 11 17:20:36 2018*
%MOMM*%
%LPD*%
G01*
G04 APERTURE LIST*
%ADD10C,0.100000*%
%ADD11R,1.600000X1.600000*%
%ADD12C,1.600000*%
%ADD13R,3.000000X3.000000*%
%ADD14C,3.000000*%
%ADD15C,1.508000*%
%ADD16R,1.508000X1.508000*%
%ADD17R,1.000000X1.500000*%
%ADD18R,1.000000X1.800000*%
%ADD19R,2.200000X1.840000*%
%ADD20R,1.000000X2.000000*%
%ADD21O,2.500000X4.000000*%
%ADD22R,1.308000X1.308000*%
%ADD23O,2.199640X1.501140*%
%ADD24C,1.000000*%
%ADD25C,0.400000*%
%ADD26C,2.000000*%
G04 APERTURE END LIST*
D10*
D11*
X89200000Y-97200000D03*
D12*
X89200000Y-94700000D03*
D13*
X53200000Y-92200000D03*
D14*
X53200000Y-97280000D03*
D13*
X125300000Y-62200000D03*
D14*
X125300000Y-57120000D03*
D15*
X103500000Y-74960000D03*
X103500000Y-72420000D03*
X103500000Y-62260000D03*
D16*
X103500000Y-54640000D03*
D10*
G36*
X77400000Y-93708000D02*
X78000000Y-94558000D01*
X75800000Y-94558000D01*
X76400000Y-93708000D01*
X77400000Y-93708000D01*
X77400000Y-93708000D01*
G37*
D17*
X78400000Y-98280000D03*
D18*
X76900000Y-98133500D03*
D17*
X75400000Y-98280000D03*
D19*
X76900000Y-95466500D03*
D10*
G36*
X76500000Y-97376200D02*
X75800000Y-96376200D01*
X78000000Y-96376200D01*
X77300000Y-97376200D01*
X76500000Y-97376200D01*
X76500000Y-97376200D01*
G37*
D20*
X78400000Y-106900000D03*
X79670000Y-106900000D03*
X80940000Y-106900000D03*
X82210000Y-106900000D03*
X83480000Y-106900000D03*
X84750000Y-106900000D03*
X86020000Y-106900000D03*
X87290000Y-106900000D03*
D21*
X66800000Y-89900000D03*
X66800000Y-67900000D03*
X66800000Y-120700000D03*
X66800000Y-98700000D03*
D22*
X85800000Y-54600000D03*
X80800000Y-54600000D03*
X91000000Y-84000000D03*
X75600000Y-84000000D03*
D12*
X61800000Y-58500000D03*
X66800000Y-59800000D03*
D23*
X115820000Y-101210000D03*
X115820000Y-91050000D03*
X115820000Y-83430000D03*
X100580000Y-83430000D03*
X100580000Y-85970000D03*
X100580000Y-88510000D03*
X100580000Y-91050000D03*
X100580000Y-103750000D03*
X100580000Y-108830000D03*
D24*
X97300000Y-103800000D03*
X75400000Y-103800000D03*
D25*
X78400000Y-98280000D02*
X88120000Y-98280000D01*
X88120000Y-98280000D02*
X89200000Y-97200000D01*
X78400000Y-98280000D02*
X78400000Y-106900000D01*
X76900000Y-98133500D02*
X76900000Y-109000000D01*
X76900000Y-109000000D02*
X80200000Y-112300000D01*
X103500000Y-74960000D02*
X103360000Y-74960000D01*
X91000000Y-84000000D02*
X91000000Y-81100000D01*
X97140000Y-74960000D02*
X103500000Y-74960000D01*
X91000000Y-81100000D02*
X97140000Y-74960000D01*
X91000000Y-84000000D02*
X91000000Y-92900000D01*
X91000000Y-92900000D02*
X89200000Y-94700000D01*
X76900000Y-98133500D02*
X76900000Y-96876200D01*
X76900000Y-95466500D02*
X76900000Y-96876200D01*
X76900000Y-95466500D02*
X76900000Y-94133000D01*
X89200000Y-94700000D02*
X77666500Y-94700000D01*
X77666500Y-94700000D02*
X76900000Y-95466500D01*
X100580000Y-108830000D02*
X100580000Y-111520000D01*
X100580000Y-111520000D02*
X98700000Y-113400000D01*
X98700000Y-113400000D02*
X81300000Y-113400000D01*
X81300000Y-113400000D02*
X80200000Y-112300000D01*
X79670000Y-111770000D02*
X79670000Y-111670000D01*
X79670000Y-111670000D02*
X79670000Y-106900000D01*
X80200000Y-112300000D02*
X79670000Y-111770000D01*
D26*
X66800000Y-98700000D02*
X66800000Y-89900000D01*
X85800000Y-54600000D02*
X103460000Y-54600000D01*
X103460000Y-54600000D02*
X103500000Y-54640000D01*
X66800000Y-59800000D02*
X80600000Y-59800000D01*
X80600000Y-59800000D02*
X85800000Y-54600000D01*
X66800000Y-67900000D02*
X66800000Y-59800000D01*
X53200000Y-97280000D02*
X53200000Y-107100000D01*
X53200000Y-107100000D02*
X66800000Y-120700000D01*
X80800000Y-54600000D02*
X80800000Y-50500000D01*
X115980000Y-47800000D02*
X125300000Y-57120000D01*
X83500000Y-47800000D02*
X115980000Y-47800000D01*
X80800000Y-50500000D02*
X83500000Y-47800000D01*
X61800000Y-58500000D02*
X61800000Y-54500000D01*
X77100000Y-50900000D02*
X80800000Y-54600000D01*
X65400000Y-50900000D02*
X77100000Y-50900000D01*
X61800000Y-54500000D02*
X65400000Y-50900000D01*
X53200000Y-92200000D02*
X53200000Y-67100000D01*
X53200000Y-67100000D02*
X61800000Y-58500000D01*
D25*
X100580000Y-103750000D02*
X97350000Y-103750000D01*
X97350000Y-103750000D02*
X97300000Y-103800000D01*
X75400000Y-103800000D02*
X75400000Y-98280000D01*
X75400000Y-98280000D02*
X74480000Y-98280000D01*
X73600000Y-86000000D02*
X75600000Y-84000000D01*
X73600000Y-97400000D02*
X73600000Y-86000000D01*
X74480000Y-98280000D02*
X73600000Y-97400000D01*
X87290000Y-106900000D02*
X94900000Y-106900000D01*
X111130000Y-105900000D02*
X115820000Y-101210000D01*
X95900000Y-105900000D02*
X111130000Y-105900000D01*
X94900000Y-106900000D02*
X95900000Y-105900000D01*
X103500000Y-72420000D02*
X112820000Y-72420000D01*
X119900000Y-86970000D02*
X115820000Y-91050000D01*
X119900000Y-79500000D02*
X119900000Y-86970000D01*
X112820000Y-72420000D02*
X119900000Y-79500000D01*
X80940000Y-106900000D02*
X80940000Y-101460000D01*
X112590000Y-80200000D02*
X115820000Y-83430000D01*
X96300000Y-80200000D02*
X112590000Y-80200000D01*
X94000000Y-82500000D02*
X96300000Y-80200000D01*
X94000000Y-95000000D02*
X94000000Y-82500000D01*
X89400000Y-99600000D02*
X94000000Y-95000000D01*
X82800000Y-99600000D02*
X89400000Y-99600000D01*
X80940000Y-101460000D02*
X82800000Y-99600000D01*
X82210000Y-106900000D02*
X82210000Y-102190000D01*
X97070000Y-83430000D02*
X100580000Y-83430000D01*
X95400000Y-85100000D02*
X97070000Y-83430000D01*
X95400000Y-95100000D02*
X95400000Y-85100000D01*
X89900000Y-100600000D02*
X95400000Y-95100000D01*
X83800000Y-100600000D02*
X89900000Y-100600000D01*
X82210000Y-102190000D02*
X83800000Y-100600000D01*
X84750000Y-106900000D02*
X84750000Y-102950000D01*
X98530000Y-85970000D02*
X100580000Y-85970000D01*
X96800000Y-87700000D02*
X98530000Y-85970000D01*
X96800000Y-95300000D02*
X96800000Y-87700000D01*
X90400000Y-101700000D02*
X96800000Y-95300000D01*
X86000000Y-101700000D02*
X90400000Y-101700000D01*
X84750000Y-102950000D02*
X86000000Y-101700000D01*
X100580000Y-88510000D02*
X98790000Y-88510000D01*
X86020000Y-103880000D02*
X86020000Y-106900000D01*
X87100000Y-102800000D02*
X86020000Y-103880000D01*
X90700000Y-102800000D02*
X87100000Y-102800000D01*
X97600000Y-95900000D02*
X90700000Y-102800000D01*
X97600000Y-89700000D02*
X97600000Y-95900000D01*
X98790000Y-88510000D02*
X97600000Y-89700000D01*
X100580000Y-91050000D02*
X105550000Y-91050000D01*
X83480000Y-109880000D02*
X83480000Y-106900000D01*
X85200000Y-111600000D02*
X83480000Y-109880000D01*
X93500000Y-111600000D02*
X85200000Y-111600000D01*
X97800000Y-107300000D02*
X93500000Y-111600000D01*
X115400000Y-107300000D02*
X97800000Y-107300000D01*
X119700000Y-103000000D02*
X115400000Y-107300000D01*
X119700000Y-100600000D02*
X119700000Y-103000000D01*
X115300000Y-96200000D02*
X119700000Y-100600000D01*
X110700000Y-96200000D02*
X115300000Y-96200000D01*
X105550000Y-91050000D02*
X110700000Y-96200000D01*
D26*
X103500000Y-62260000D02*
X125240000Y-62260000D01*
X125240000Y-62260000D02*
X125300000Y-62200000D01*
M02*
