G04 #@! TF.GenerationSoftware,KiCad,Pcbnew,(5.0.2)-1*
G04 #@! TF.CreationDate,2019-01-13T21:29:39+01:00*
G04 #@! TF.ProjectId,opi_nrf24,6f70695f-6e72-4663-9234-2e6b69636164,rev?*
G04 #@! TF.SameCoordinates,Original*
G04 #@! TF.FileFunction,Copper,L1,Top*
G04 #@! TF.FilePolarity,Positive*
%FSLAX46Y46*%
G04 Gerber Fmt 4.6, Leading zero omitted, Abs format (unit mm)*
G04 Created by KiCad (PCBNEW (5.0.2)-1) date 13/01/2019 21:29:39*
%MOMM*%
%LPD*%
G01*
G04 APERTURE LIST*
G04 #@! TA.AperFunction,ComponentPad*
%ADD10C,1.524000*%
G04 #@! TD*
G04 #@! TA.AperFunction,SMDPad,CuDef*
%ADD11R,2.000000X1.000000*%
G04 #@! TD*
G04 #@! TA.AperFunction,Conductor*
%ADD12C,0.400000*%
G04 #@! TD*
G04 APERTURE END LIST*
D10*
G04 #@! TO.P,U2,126*
G04 #@! TO.N,Net-(U1-Pad8)*
X181610000Y-76835000D03*
G04 #@! TO.P,U2,124*
G04 #@! TO.N,Net-(U1-Pad4)*
X181610000Y-79375000D03*
G04 #@! TO.P,U2,121*
G04 #@! TO.N,Net-(U1-Pad7)*
X179070000Y-81915000D03*
G04 #@! TO.P,U2,117*
G04 #@! TO.N,Net-(U1-Pad2)*
X179070000Y-86995000D03*
G04 #@! TO.P,U2,122*
G04 #@! TO.N,Net-(U1-Pad3)*
X181610000Y-81915000D03*
G04 #@! TO.P,U2,120*
G04 #@! TO.N,Net-(U1-Pad1)*
X181610000Y-84455000D03*
G04 #@! TO.P,U2,119*
G04 #@! TO.N,Net-(U1-Pad6)*
X179070000Y-84455000D03*
G04 #@! TO.P,U2,123*
G04 #@! TO.N,Net-(U1-Pad5)*
X179070000Y-79375000D03*
G04 #@! TD*
D11*
G04 #@! TO.P,U1,2*
G04 #@! TO.N,Net-(U1-Pad2)*
X190055000Y-77515000D03*
G04 #@! TO.P,U1,1*
G04 #@! TO.N,Net-(U1-Pad1)*
X190055000Y-78785000D03*
G04 #@! TO.P,U1,3*
G04 #@! TO.N,Net-(U1-Pad3)*
X190055000Y-80055000D03*
G04 #@! TO.P,U1,4*
G04 #@! TO.N,Net-(U1-Pad4)*
X190055000Y-81325000D03*
G04 #@! TO.P,U1,5*
G04 #@! TO.N,Net-(U1-Pad5)*
X190055000Y-82595000D03*
G04 #@! TO.P,U1,6*
G04 #@! TO.N,Net-(U1-Pad6)*
X190055000Y-83865000D03*
G04 #@! TO.P,U1,7*
G04 #@! TO.N,Net-(U1-Pad7)*
X190055000Y-85135000D03*
G04 #@! TO.P,U1,8*
G04 #@! TO.N,Net-(U1-Pad8)*
X190055000Y-86405000D03*
G04 #@! TD*
D12*
G04 #@! TO.N,Net-(U1-Pad2)*
X180937762Y-86995000D02*
X186436000Y-81496762D01*
X179070000Y-86995000D02*
X180937762Y-86995000D01*
X188655000Y-77515000D02*
X190055000Y-77515000D01*
X186436000Y-79734000D02*
X188655000Y-77515000D01*
X186436000Y-81496762D02*
X186436000Y-79734000D01*
G04 #@! TO.N,Net-(U1-Pad1)*
X181610000Y-84455000D02*
X183388000Y-82677000D01*
X183388000Y-81788000D02*
X188715959Y-76460041D01*
X183388000Y-82677000D02*
X183388000Y-81788000D01*
X188715959Y-76460041D02*
X191776041Y-76460041D01*
X191776041Y-76460041D02*
X192024000Y-76708000D01*
X191455000Y-78785000D02*
X190055000Y-78785000D01*
X192024000Y-78216000D02*
X191455000Y-78785000D01*
X192024000Y-76708000D02*
X192024000Y-78216000D01*
G04 #@! TO.N,Net-(U1-Pad3)*
X187764969Y-75760031D02*
X192405001Y-75760031D01*
X192405001Y-75760031D02*
X193040000Y-76395030D01*
X181610000Y-81915000D02*
X187764969Y-75760031D01*
X193040000Y-78470000D02*
X191455000Y-80055000D01*
X193040000Y-76395030D02*
X193040000Y-78470000D01*
X191455000Y-80055000D02*
X190055000Y-80055000D01*
G04 #@! TO.N,Net-(U1-Pad4)*
X191725000Y-81325000D02*
X190055000Y-81325000D01*
X194310000Y-78740000D02*
X191725000Y-81325000D01*
X194310000Y-76200000D02*
X194310000Y-78740000D01*
X182687630Y-79375000D02*
X187002610Y-75060020D01*
X181610000Y-79375000D02*
X182687630Y-79375000D01*
X193170020Y-75060020D02*
X194310000Y-76200000D01*
X187002610Y-75060020D02*
X193170020Y-75060020D01*
G04 #@! TO.N,Net-(U1-Pad5)*
X192360000Y-82595000D02*
X190055000Y-82595000D01*
X195580000Y-79375000D02*
X192360000Y-82595000D01*
X179070000Y-79375000D02*
X180340000Y-78105000D01*
X182245000Y-78105000D02*
X185989990Y-74360010D01*
X185989990Y-74360010D02*
X193740010Y-74360010D01*
X193740010Y-74360010D02*
X195580000Y-76200000D01*
X180340000Y-78105000D02*
X182245000Y-78105000D01*
X195580000Y-76200000D02*
X195580000Y-79375000D01*
G04 #@! TO.N,Net-(U1-Pad6)*
X179070000Y-84455000D02*
X179424962Y-84455000D01*
X188655000Y-83865000D02*
X190055000Y-83865000D01*
X179070000Y-84455000D02*
X177992370Y-84455000D01*
X177992370Y-84455000D02*
X177165000Y-85282370D01*
X177165000Y-85282370D02*
X177165000Y-87630000D01*
X177165000Y-87630000D02*
X178435000Y-88900000D01*
X178435000Y-88900000D02*
X183620000Y-88900000D01*
X183620000Y-88900000D02*
X188655000Y-83865000D01*
G04 #@! TO.N,Net-(U1-Pad7)*
X178308001Y-82676999D02*
X179070000Y-81915000D01*
X176464990Y-87919953D02*
X176464990Y-84520010D01*
X178145047Y-89600010D02*
X176464990Y-87919953D01*
X184189990Y-89600010D02*
X178145047Y-89600010D01*
X176464990Y-84520010D02*
X178308001Y-82676999D01*
X188655000Y-85135000D02*
X184189990Y-89600010D01*
X190055000Y-85135000D02*
X188655000Y-85135000D01*
G04 #@! TO.N,Net-(U1-Pad8)*
X191725000Y-86405000D02*
X190055000Y-86405000D01*
X196850000Y-81280000D02*
X191725000Y-86405000D01*
X196850000Y-76200000D02*
X196850000Y-81280000D01*
X194310000Y-73660000D02*
X196850000Y-76200000D01*
X181610000Y-76835000D02*
X184785000Y-73660000D01*
X184785000Y-73660000D02*
X194310000Y-73660000D01*
G04 #@! TD*
M02*
