G04 #@! TF.GenerationSoftware,KiCad,Pcbnew,(5.0.2)-1*
G04 #@! TF.CreationDate,2019-01-29T22:45:46+01:00*
G04 #@! TF.ProjectId,rpi_nrf24,7270695f-6e72-4663-9234-2e6b69636164,rev?*
G04 #@! TF.SameCoordinates,Original*
G04 #@! TF.FileFunction,Copper,L1,Top*
G04 #@! TF.FilePolarity,Positive*
%FSLAX46Y46*%
G04 Gerber Fmt 4.6, Leading zero omitted, Abs format (unit mm)*
G04 Created by KiCad (PCBNEW (5.0.2)-1) date 29/01/2019 22:45:46*
%MOMM*%
%LPD*%
G01*
G04 APERTURE LIST*
G04 #@! TA.AperFunction,Conductor*
%ADD10C,0.100000*%
G04 #@! TD*
G04 #@! TA.AperFunction,SMDPad,CuDef*
%ADD11C,1.425000*%
G04 #@! TD*
G04 #@! TA.AperFunction,ComponentPad*
%ADD12O,1.700000X1.700000*%
G04 #@! TD*
G04 #@! TA.AperFunction,SMDPad,CuDef*
%ADD13R,2.200000X1.600000*%
G04 #@! TD*
G04 #@! TA.AperFunction,ComponentPad*
%ADD14R,1.800000X1.800000*%
G04 #@! TD*
G04 #@! TA.AperFunction,ComponentPad*
%ADD15C,1.800000*%
G04 #@! TD*
G04 #@! TA.AperFunction,SMDPad,CuDef*
%ADD16R,2.000000X1.000000*%
G04 #@! TD*
G04 #@! TA.AperFunction,Conductor*
%ADD17C,0.300000*%
G04 #@! TD*
G04 #@! TA.AperFunction,Conductor*
%ADD18C,0.254000*%
G04 #@! TD*
G04 APERTURE END LIST*
D10*
G04 #@! TO.N,Net-(J1-Pad18)*
G04 #@! TO.C,R3*
G36*
X118941504Y-42695198D02*
X118965773Y-42698798D01*
X118989571Y-42704759D01*
X119012671Y-42713024D01*
X119034849Y-42723514D01*
X119055893Y-42736127D01*
X119075598Y-42750741D01*
X119093777Y-42767217D01*
X119110253Y-42785396D01*
X119124867Y-42805101D01*
X119137480Y-42826145D01*
X119147970Y-42848323D01*
X119156235Y-42871423D01*
X119162196Y-42895221D01*
X119165796Y-42919490D01*
X119167000Y-42943994D01*
X119167000Y-44193994D01*
X119165796Y-44218498D01*
X119162196Y-44242767D01*
X119156235Y-44266565D01*
X119147970Y-44289665D01*
X119137480Y-44311843D01*
X119124867Y-44332887D01*
X119110253Y-44352592D01*
X119093777Y-44370771D01*
X119075598Y-44387247D01*
X119055893Y-44401861D01*
X119034849Y-44414474D01*
X119012671Y-44424964D01*
X118989571Y-44433229D01*
X118965773Y-44439190D01*
X118941504Y-44442790D01*
X118917000Y-44443994D01*
X117992000Y-44443994D01*
X117967496Y-44442790D01*
X117943227Y-44439190D01*
X117919429Y-44433229D01*
X117896329Y-44424964D01*
X117874151Y-44414474D01*
X117853107Y-44401861D01*
X117833402Y-44387247D01*
X117815223Y-44370771D01*
X117798747Y-44352592D01*
X117784133Y-44332887D01*
X117771520Y-44311843D01*
X117761030Y-44289665D01*
X117752765Y-44266565D01*
X117746804Y-44242767D01*
X117743204Y-44218498D01*
X117742000Y-44193994D01*
X117742000Y-42943994D01*
X117743204Y-42919490D01*
X117746804Y-42895221D01*
X117752765Y-42871423D01*
X117761030Y-42848323D01*
X117771520Y-42826145D01*
X117784133Y-42805101D01*
X117798747Y-42785396D01*
X117815223Y-42767217D01*
X117833402Y-42750741D01*
X117853107Y-42736127D01*
X117874151Y-42723514D01*
X117896329Y-42713024D01*
X117919429Y-42704759D01*
X117943227Y-42698798D01*
X117967496Y-42695198D01*
X117992000Y-42693994D01*
X118917000Y-42693994D01*
X118941504Y-42695198D01*
X118941504Y-42695198D01*
G37*
D11*
G04 #@! TD*
G04 #@! TO.P,R3,2*
G04 #@! TO.N,Net-(J1-Pad18)*
X118454500Y-43568994D03*
D10*
G04 #@! TO.N,Net-(D3-Pad2)*
G04 #@! TO.C,R3*
G36*
X115966504Y-42695198D02*
X115990773Y-42698798D01*
X116014571Y-42704759D01*
X116037671Y-42713024D01*
X116059849Y-42723514D01*
X116080893Y-42736127D01*
X116100598Y-42750741D01*
X116118777Y-42767217D01*
X116135253Y-42785396D01*
X116149867Y-42805101D01*
X116162480Y-42826145D01*
X116172970Y-42848323D01*
X116181235Y-42871423D01*
X116187196Y-42895221D01*
X116190796Y-42919490D01*
X116192000Y-42943994D01*
X116192000Y-44193994D01*
X116190796Y-44218498D01*
X116187196Y-44242767D01*
X116181235Y-44266565D01*
X116172970Y-44289665D01*
X116162480Y-44311843D01*
X116149867Y-44332887D01*
X116135253Y-44352592D01*
X116118777Y-44370771D01*
X116100598Y-44387247D01*
X116080893Y-44401861D01*
X116059849Y-44414474D01*
X116037671Y-44424964D01*
X116014571Y-44433229D01*
X115990773Y-44439190D01*
X115966504Y-44442790D01*
X115942000Y-44443994D01*
X115017000Y-44443994D01*
X114992496Y-44442790D01*
X114968227Y-44439190D01*
X114944429Y-44433229D01*
X114921329Y-44424964D01*
X114899151Y-44414474D01*
X114878107Y-44401861D01*
X114858402Y-44387247D01*
X114840223Y-44370771D01*
X114823747Y-44352592D01*
X114809133Y-44332887D01*
X114796520Y-44311843D01*
X114786030Y-44289665D01*
X114777765Y-44266565D01*
X114771804Y-44242767D01*
X114768204Y-44218498D01*
X114767000Y-44193994D01*
X114767000Y-42943994D01*
X114768204Y-42919490D01*
X114771804Y-42895221D01*
X114777765Y-42871423D01*
X114786030Y-42848323D01*
X114796520Y-42826145D01*
X114809133Y-42805101D01*
X114823747Y-42785396D01*
X114840223Y-42767217D01*
X114858402Y-42750741D01*
X114878107Y-42736127D01*
X114899151Y-42723514D01*
X114921329Y-42713024D01*
X114944429Y-42704759D01*
X114968227Y-42698798D01*
X114992496Y-42695198D01*
X115017000Y-42693994D01*
X115942000Y-42693994D01*
X115966504Y-42695198D01*
X115966504Y-42695198D01*
G37*
D11*
G04 #@! TD*
G04 #@! TO.P,R3,1*
G04 #@! TO.N,Net-(D3-Pad2)*
X115479500Y-43568994D03*
D10*
G04 #@! TO.N,Net-(J1-Pad12)*
G04 #@! TO.C,R1*
G36*
X130189504Y-48401204D02*
X130213773Y-48404804D01*
X130237571Y-48410765D01*
X130260671Y-48419030D01*
X130282849Y-48429520D01*
X130303893Y-48442133D01*
X130323598Y-48456747D01*
X130341777Y-48473223D01*
X130358253Y-48491402D01*
X130372867Y-48511107D01*
X130385480Y-48532151D01*
X130395970Y-48554329D01*
X130404235Y-48577429D01*
X130410196Y-48601227D01*
X130413796Y-48625496D01*
X130415000Y-48650000D01*
X130415000Y-49575000D01*
X130413796Y-49599504D01*
X130410196Y-49623773D01*
X130404235Y-49647571D01*
X130395970Y-49670671D01*
X130385480Y-49692849D01*
X130372867Y-49713893D01*
X130358253Y-49733598D01*
X130341777Y-49751777D01*
X130323598Y-49768253D01*
X130303893Y-49782867D01*
X130282849Y-49795480D01*
X130260671Y-49805970D01*
X130237571Y-49814235D01*
X130213773Y-49820196D01*
X130189504Y-49823796D01*
X130165000Y-49825000D01*
X128915000Y-49825000D01*
X128890496Y-49823796D01*
X128866227Y-49820196D01*
X128842429Y-49814235D01*
X128819329Y-49805970D01*
X128797151Y-49795480D01*
X128776107Y-49782867D01*
X128756402Y-49768253D01*
X128738223Y-49751777D01*
X128721747Y-49733598D01*
X128707133Y-49713893D01*
X128694520Y-49692849D01*
X128684030Y-49670671D01*
X128675765Y-49647571D01*
X128669804Y-49623773D01*
X128666204Y-49599504D01*
X128665000Y-49575000D01*
X128665000Y-48650000D01*
X128666204Y-48625496D01*
X128669804Y-48601227D01*
X128675765Y-48577429D01*
X128684030Y-48554329D01*
X128694520Y-48532151D01*
X128707133Y-48511107D01*
X128721747Y-48491402D01*
X128738223Y-48473223D01*
X128756402Y-48456747D01*
X128776107Y-48442133D01*
X128797151Y-48429520D01*
X128819329Y-48419030D01*
X128842429Y-48410765D01*
X128866227Y-48404804D01*
X128890496Y-48401204D01*
X128915000Y-48400000D01*
X130165000Y-48400000D01*
X130189504Y-48401204D01*
X130189504Y-48401204D01*
G37*
D11*
G04 #@! TD*
G04 #@! TO.P,R1,2*
G04 #@! TO.N,Net-(J1-Pad12)*
X129540000Y-49112500D03*
D10*
G04 #@! TO.N,Net-(D1-Pad2)*
G04 #@! TO.C,R1*
G36*
X130189504Y-45426204D02*
X130213773Y-45429804D01*
X130237571Y-45435765D01*
X130260671Y-45444030D01*
X130282849Y-45454520D01*
X130303893Y-45467133D01*
X130323598Y-45481747D01*
X130341777Y-45498223D01*
X130358253Y-45516402D01*
X130372867Y-45536107D01*
X130385480Y-45557151D01*
X130395970Y-45579329D01*
X130404235Y-45602429D01*
X130410196Y-45626227D01*
X130413796Y-45650496D01*
X130415000Y-45675000D01*
X130415000Y-46600000D01*
X130413796Y-46624504D01*
X130410196Y-46648773D01*
X130404235Y-46672571D01*
X130395970Y-46695671D01*
X130385480Y-46717849D01*
X130372867Y-46738893D01*
X130358253Y-46758598D01*
X130341777Y-46776777D01*
X130323598Y-46793253D01*
X130303893Y-46807867D01*
X130282849Y-46820480D01*
X130260671Y-46830970D01*
X130237571Y-46839235D01*
X130213773Y-46845196D01*
X130189504Y-46848796D01*
X130165000Y-46850000D01*
X128915000Y-46850000D01*
X128890496Y-46848796D01*
X128866227Y-46845196D01*
X128842429Y-46839235D01*
X128819329Y-46830970D01*
X128797151Y-46820480D01*
X128776107Y-46807867D01*
X128756402Y-46793253D01*
X128738223Y-46776777D01*
X128721747Y-46758598D01*
X128707133Y-46738893D01*
X128694520Y-46717849D01*
X128684030Y-46695671D01*
X128675765Y-46672571D01*
X128669804Y-46648773D01*
X128666204Y-46624504D01*
X128665000Y-46600000D01*
X128665000Y-45675000D01*
X128666204Y-45650496D01*
X128669804Y-45626227D01*
X128675765Y-45602429D01*
X128684030Y-45579329D01*
X128694520Y-45557151D01*
X128707133Y-45536107D01*
X128721747Y-45516402D01*
X128738223Y-45498223D01*
X128756402Y-45481747D01*
X128776107Y-45467133D01*
X128797151Y-45454520D01*
X128819329Y-45444030D01*
X128842429Y-45435765D01*
X128866227Y-45429804D01*
X128890496Y-45426204D01*
X128915000Y-45425000D01*
X130165000Y-45425000D01*
X130189504Y-45426204D01*
X130189504Y-45426204D01*
G37*
D11*
G04 #@! TD*
G04 #@! TO.P,R1,1*
G04 #@! TO.N,Net-(D1-Pad2)*
X129540000Y-46137500D03*
D10*
G04 #@! TO.N,Net-(J1-Pad16)*
G04 #@! TO.C,R2*
G36*
X118759504Y-52846204D02*
X118783773Y-52849804D01*
X118807571Y-52855765D01*
X118830671Y-52864030D01*
X118852849Y-52874520D01*
X118873893Y-52887133D01*
X118893598Y-52901747D01*
X118911777Y-52918223D01*
X118928253Y-52936402D01*
X118942867Y-52956107D01*
X118955480Y-52977151D01*
X118965970Y-52999329D01*
X118974235Y-53022429D01*
X118980196Y-53046227D01*
X118983796Y-53070496D01*
X118985000Y-53095000D01*
X118985000Y-54020000D01*
X118983796Y-54044504D01*
X118980196Y-54068773D01*
X118974235Y-54092571D01*
X118965970Y-54115671D01*
X118955480Y-54137849D01*
X118942867Y-54158893D01*
X118928253Y-54178598D01*
X118911777Y-54196777D01*
X118893598Y-54213253D01*
X118873893Y-54227867D01*
X118852849Y-54240480D01*
X118830671Y-54250970D01*
X118807571Y-54259235D01*
X118783773Y-54265196D01*
X118759504Y-54268796D01*
X118735000Y-54270000D01*
X117485000Y-54270000D01*
X117460496Y-54268796D01*
X117436227Y-54265196D01*
X117412429Y-54259235D01*
X117389329Y-54250970D01*
X117367151Y-54240480D01*
X117346107Y-54227867D01*
X117326402Y-54213253D01*
X117308223Y-54196777D01*
X117291747Y-54178598D01*
X117277133Y-54158893D01*
X117264520Y-54137849D01*
X117254030Y-54115671D01*
X117245765Y-54092571D01*
X117239804Y-54068773D01*
X117236204Y-54044504D01*
X117235000Y-54020000D01*
X117235000Y-53095000D01*
X117236204Y-53070496D01*
X117239804Y-53046227D01*
X117245765Y-53022429D01*
X117254030Y-52999329D01*
X117264520Y-52977151D01*
X117277133Y-52956107D01*
X117291747Y-52936402D01*
X117308223Y-52918223D01*
X117326402Y-52901747D01*
X117346107Y-52887133D01*
X117367151Y-52874520D01*
X117389329Y-52864030D01*
X117412429Y-52855765D01*
X117436227Y-52849804D01*
X117460496Y-52846204D01*
X117485000Y-52845000D01*
X118735000Y-52845000D01*
X118759504Y-52846204D01*
X118759504Y-52846204D01*
G37*
D11*
G04 #@! TD*
G04 #@! TO.P,R2,2*
G04 #@! TO.N,Net-(J1-Pad16)*
X118110000Y-53557500D03*
D10*
G04 #@! TO.N,Net-(D2-Pad2)*
G04 #@! TO.C,R2*
G36*
X118759504Y-49871204D02*
X118783773Y-49874804D01*
X118807571Y-49880765D01*
X118830671Y-49889030D01*
X118852849Y-49899520D01*
X118873893Y-49912133D01*
X118893598Y-49926747D01*
X118911777Y-49943223D01*
X118928253Y-49961402D01*
X118942867Y-49981107D01*
X118955480Y-50002151D01*
X118965970Y-50024329D01*
X118974235Y-50047429D01*
X118980196Y-50071227D01*
X118983796Y-50095496D01*
X118985000Y-50120000D01*
X118985000Y-51045000D01*
X118983796Y-51069504D01*
X118980196Y-51093773D01*
X118974235Y-51117571D01*
X118965970Y-51140671D01*
X118955480Y-51162849D01*
X118942867Y-51183893D01*
X118928253Y-51203598D01*
X118911777Y-51221777D01*
X118893598Y-51238253D01*
X118873893Y-51252867D01*
X118852849Y-51265480D01*
X118830671Y-51275970D01*
X118807571Y-51284235D01*
X118783773Y-51290196D01*
X118759504Y-51293796D01*
X118735000Y-51295000D01*
X117485000Y-51295000D01*
X117460496Y-51293796D01*
X117436227Y-51290196D01*
X117412429Y-51284235D01*
X117389329Y-51275970D01*
X117367151Y-51265480D01*
X117346107Y-51252867D01*
X117326402Y-51238253D01*
X117308223Y-51221777D01*
X117291747Y-51203598D01*
X117277133Y-51183893D01*
X117264520Y-51162849D01*
X117254030Y-51140671D01*
X117245765Y-51117571D01*
X117239804Y-51093773D01*
X117236204Y-51069504D01*
X117235000Y-51045000D01*
X117235000Y-50120000D01*
X117236204Y-50095496D01*
X117239804Y-50071227D01*
X117245765Y-50047429D01*
X117254030Y-50024329D01*
X117264520Y-50002151D01*
X117277133Y-49981107D01*
X117291747Y-49961402D01*
X117308223Y-49943223D01*
X117326402Y-49926747D01*
X117346107Y-49912133D01*
X117367151Y-49899520D01*
X117389329Y-49889030D01*
X117412429Y-49880765D01*
X117436227Y-49874804D01*
X117460496Y-49871204D01*
X117485000Y-49870000D01*
X118735000Y-49870000D01*
X118759504Y-49871204D01*
X118759504Y-49871204D01*
G37*
D11*
G04 #@! TD*
G04 #@! TO.P,R2,1*
G04 #@! TO.N,Net-(D2-Pad2)*
X118110000Y-50582500D03*
D12*
G04 #@! TO.P,J1,12*
G04 #@! TO.N,Net-(J1-Pad12)*
X131445000Y-52331994D03*
G04 #@! TO.P,J1,15*
G04 #@! TO.N,Net-(J1-Pad15)*
X128905000Y-57411994D03*
G04 #@! TO.P,J1,16*
G04 #@! TO.N,Net-(J1-Pad16)*
X131445000Y-57411994D03*
G04 #@! TO.P,J1,17*
G04 #@! TO.N,Net-(C1-Pad1)*
X128905000Y-59951994D03*
G04 #@! TO.P,J1,18*
G04 #@! TO.N,Net-(J1-Pad18)*
X131445000Y-59951994D03*
G04 #@! TO.P,J1,19*
G04 #@! TO.N,Net-(J1-Pad19)*
X128905000Y-62491994D03*
G04 #@! TO.P,J1,20*
G04 #@! TO.N,Net-(C1-Pad2)*
X131445000Y-62491994D03*
G04 #@! TO.P,J1,21*
G04 #@! TO.N,Net-(J1-Pad21)*
X128905000Y-65031994D03*
G04 #@! TO.P,J1,22*
G04 #@! TO.N,Net-(J1-Pad22)*
X131445000Y-65031994D03*
G04 #@! TO.P,J1,23*
G04 #@! TO.N,Net-(J1-Pad23)*
X128905000Y-67571994D03*
G04 #@! TO.P,J1,24*
G04 #@! TO.N,Net-(J1-Pad24)*
X131445000Y-67571994D03*
G04 #@! TD*
D13*
G04 #@! TO.P,C1,1*
G04 #@! TO.N,Net-(C1-Pad1)*
X106045000Y-52331994D03*
G04 #@! TO.P,C1,2*
G04 #@! TO.N,Net-(C1-Pad2)*
X103045000Y-52331994D03*
G04 #@! TD*
D14*
G04 #@! TO.P,D1,1*
G04 #@! TO.N,Net-(C1-Pad2)*
X121920000Y-46616994D03*
D15*
G04 #@! TO.P,D1,2*
G04 #@! TO.N,Net-(D1-Pad2)*
X124460000Y-46616994D03*
G04 #@! TD*
G04 #@! TO.P,D2,2*
G04 #@! TO.N,Net-(D2-Pad2)*
X118110000Y-46616994D03*
D14*
G04 #@! TO.P,D2,1*
G04 #@! TO.N,Net-(C1-Pad2)*
X115570000Y-46616994D03*
G04 #@! TD*
G04 #@! TO.P,D3,1*
G04 #@! TO.N,Net-(C1-Pad2)*
X109220000Y-46616994D03*
D15*
G04 #@! TO.P,D3,2*
G04 #@! TO.N,Net-(D3-Pad2)*
X111760000Y-46616994D03*
G04 #@! TD*
D16*
G04 #@! TO.P,U1,8*
G04 #@! TO.N,Net-(J1-Pad15)*
X112840000Y-58001994D03*
G04 #@! TO.P,U1,7*
G04 #@! TO.N,Net-(J1-Pad21)*
X112840000Y-59271994D03*
G04 #@! TO.P,U1,6*
G04 #@! TO.N,Net-(J1-Pad19)*
X112840000Y-60541994D03*
G04 #@! TO.P,U1,5*
G04 #@! TO.N,Net-(J1-Pad23)*
X112840000Y-61811994D03*
G04 #@! TO.P,U1,4*
G04 #@! TO.N,Net-(J1-Pad24)*
X112840000Y-63081994D03*
G04 #@! TO.P,U1,3*
G04 #@! TO.N,Net-(J1-Pad22)*
X112840000Y-64351994D03*
G04 #@! TO.P,U1,1*
G04 #@! TO.N,Net-(C1-Pad2)*
X112840000Y-65621994D03*
G04 #@! TO.P,U1,2*
G04 #@! TO.N,Net-(C1-Pad1)*
X112840000Y-66891994D03*
G04 #@! TD*
D17*
G04 #@! TO.N,Net-(C1-Pad1)*
X106045000Y-53431994D02*
X106045000Y-52331994D01*
X106045000Y-61396994D02*
X106045000Y-53431994D01*
X111540000Y-66891994D02*
X106045000Y-61396994D01*
X112840000Y-66891994D02*
X111540000Y-66891994D01*
X127000000Y-59951994D02*
X128905000Y-59951994D01*
X123190000Y-56141994D02*
X127000000Y-59951994D01*
X115570000Y-56141994D02*
X123190000Y-56141994D01*
X106045000Y-52331994D02*
X111760000Y-52331994D01*
X111760000Y-52331994D02*
X115570000Y-56141994D01*
G04 #@! TO.N,Net-(D1-Pad2)*
X129540000Y-46137500D02*
X127344500Y-46137500D01*
X126865006Y-46616994D02*
X124460000Y-46616994D01*
X127344500Y-46137500D02*
X126865006Y-46616994D01*
G04 #@! TO.N,Net-(D2-Pad2)*
X118110000Y-50582500D02*
X118110000Y-46616994D01*
G04 #@! TO.N,Net-(D3-Pad2)*
X113276006Y-43568994D02*
X115479500Y-43568994D01*
X111760000Y-46616994D02*
X111760000Y-45085000D01*
X111760000Y-45085000D02*
X113276006Y-43568994D01*
G04 #@! TO.N,Net-(J1-Pad12)*
X131295000Y-52481994D02*
X131445000Y-52331994D01*
X129540000Y-49925000D02*
X129540000Y-49112500D01*
X129540000Y-51629075D02*
X129540000Y-49925000D01*
X130242919Y-52331994D02*
X129540000Y-51629075D01*
X131445000Y-52331994D02*
X130242919Y-52331994D01*
G04 #@! TO.N,Net-(J1-Pad15)*
X112840000Y-58001994D02*
X118827000Y-58001994D01*
X129754999Y-58261993D02*
X128905000Y-57411994D01*
X130155001Y-58661995D02*
X129754999Y-58261993D01*
X130155001Y-60551995D02*
X130155001Y-58661995D01*
X129505001Y-61201995D02*
X130155001Y-60551995D01*
X122027001Y-61201995D02*
X129505001Y-61201995D01*
X118827000Y-58001994D02*
X122027001Y-61201995D01*
G04 #@! TO.N,Net-(J1-Pad16)*
X128792587Y-53557500D02*
X118110000Y-53557500D01*
X131445000Y-57411994D02*
X131445000Y-56209913D01*
X131445000Y-56209913D02*
X128792587Y-53557500D01*
G04 #@! TO.N,Net-(J1-Pad18)*
X131833994Y-43568994D02*
X118454500Y-43568994D01*
X133540500Y-45275500D02*
X131833994Y-43568994D01*
X131445000Y-59951994D02*
X133540500Y-57856494D01*
X133540500Y-57856494D02*
X133540500Y-45275500D01*
G04 #@! TO.N,Net-(J1-Pad19)*
X116160000Y-60541994D02*
X112840000Y-60541994D01*
X121900001Y-66281995D02*
X116160000Y-60541994D01*
X129505001Y-66281995D02*
X121900001Y-66281995D01*
X130155001Y-65631995D02*
X129505001Y-66281995D01*
X128905000Y-62491994D02*
X130155001Y-63741995D01*
X130155001Y-63741995D02*
X130155001Y-65631995D01*
G04 #@! TO.N,Net-(J1-Pad21)*
X122555000Y-65031994D02*
X128905000Y-65031994D01*
X112840000Y-59271994D02*
X116795000Y-59271994D01*
X116795000Y-59271994D02*
X122555000Y-65031994D01*
G04 #@! TO.N,Net-(J1-Pad22)*
X132294999Y-65881993D02*
X131445000Y-65031994D01*
X114890000Y-64351994D02*
X120269000Y-69730994D01*
X112840000Y-64351994D02*
X114890000Y-64351994D01*
X120269000Y-69730994D02*
X132207000Y-69730994D01*
X132207000Y-69730994D02*
X132905500Y-69032494D01*
X132905500Y-69032494D02*
X132905500Y-66492494D01*
X132905500Y-66492494D02*
X132294999Y-65881993D01*
G04 #@! TO.N,Net-(J1-Pad23)*
X121285000Y-67571994D02*
X128905000Y-67571994D01*
X112840000Y-61811994D02*
X115525000Y-61811994D01*
X115525000Y-61811994D02*
X121285000Y-67571994D01*
G04 #@! TO.N,Net-(J1-Pad24)*
X115151994Y-63081994D02*
X112840000Y-63081994D01*
X121031000Y-68961000D02*
X115151994Y-63081994D01*
X131445000Y-67571994D02*
X130055994Y-68961000D01*
X130055994Y-68961000D02*
X121031000Y-68961000D01*
G04 #@! TD*
D18*
G04 #@! TO.N,Net-(C1-Pad2)*
G36*
X112775597Y-42959245D02*
X112775595Y-42959247D01*
X112710053Y-43003041D01*
X112666259Y-43068583D01*
X111259590Y-44475253D01*
X111194048Y-44519047D01*
X111150254Y-44584589D01*
X111150251Y-44584592D01*
X111020546Y-44778709D01*
X110959622Y-45085000D01*
X110975001Y-45162316D01*
X110975001Y-45280680D01*
X110890493Y-45315684D01*
X110714139Y-45492038D01*
X110658327Y-45357295D01*
X110479698Y-45178667D01*
X110246309Y-45081994D01*
X109505750Y-45081994D01*
X109347000Y-45240744D01*
X109347000Y-46489994D01*
X109367000Y-46489994D01*
X109367000Y-46743994D01*
X109347000Y-46743994D01*
X109347000Y-47993244D01*
X109505750Y-48151994D01*
X110246309Y-48151994D01*
X110479698Y-48055321D01*
X110658327Y-47876693D01*
X110714139Y-47741950D01*
X110890493Y-47918304D01*
X111454670Y-48151994D01*
X112065330Y-48151994D01*
X112629507Y-47918304D01*
X113061310Y-47486501D01*
X113295000Y-46922324D01*
X113295000Y-46902744D01*
X114035000Y-46902744D01*
X114035000Y-47643304D01*
X114131673Y-47876693D01*
X114310302Y-48055321D01*
X114543691Y-48151994D01*
X115284250Y-48151994D01*
X115443000Y-47993244D01*
X115443000Y-46743994D01*
X114193750Y-46743994D01*
X114035000Y-46902744D01*
X113295000Y-46902744D01*
X113295000Y-46311664D01*
X113061310Y-45747487D01*
X112634490Y-45320667D01*
X113601164Y-44353994D01*
X114151386Y-44353994D01*
X114187874Y-44537429D01*
X114382414Y-44828580D01*
X114673565Y-45023120D01*
X114969542Y-45081994D01*
X114543691Y-45081994D01*
X114310302Y-45178667D01*
X114131673Y-45357295D01*
X114035000Y-45590684D01*
X114035000Y-46331244D01*
X114193750Y-46489994D01*
X115443000Y-46489994D01*
X115443000Y-46469994D01*
X115697000Y-46469994D01*
X115697000Y-46489994D01*
X115717000Y-46489994D01*
X115717000Y-46743994D01*
X115697000Y-46743994D01*
X115697000Y-47993244D01*
X115855750Y-48151994D01*
X116596309Y-48151994D01*
X116829698Y-48055321D01*
X117008327Y-47876693D01*
X117064139Y-47741950D01*
X117240493Y-47918304D01*
X117325001Y-47953308D01*
X117325000Y-49254386D01*
X117141565Y-49290874D01*
X116850414Y-49485414D01*
X116655874Y-49776565D01*
X116587560Y-50120000D01*
X116587560Y-51045000D01*
X116655874Y-51388435D01*
X116850414Y-51679586D01*
X117141565Y-51874126D01*
X117485000Y-51942440D01*
X118735000Y-51942440D01*
X119078435Y-51874126D01*
X119369586Y-51679586D01*
X119564126Y-51388435D01*
X119632440Y-51045000D01*
X119632440Y-50120000D01*
X119564126Y-49776565D01*
X119369586Y-49485414D01*
X119078435Y-49290874D01*
X118895000Y-49254386D01*
X118895000Y-47953308D01*
X118979507Y-47918304D01*
X119411310Y-47486501D01*
X119645000Y-46922324D01*
X119645000Y-46902744D01*
X120385000Y-46902744D01*
X120385000Y-47643304D01*
X120481673Y-47876693D01*
X120660302Y-48055321D01*
X120893691Y-48151994D01*
X121634250Y-48151994D01*
X121793000Y-47993244D01*
X121793000Y-46743994D01*
X120543750Y-46743994D01*
X120385000Y-46902744D01*
X119645000Y-46902744D01*
X119645000Y-46311664D01*
X119411310Y-45747487D01*
X119254507Y-45590684D01*
X120385000Y-45590684D01*
X120385000Y-46331244D01*
X120543750Y-46489994D01*
X121793000Y-46489994D01*
X121793000Y-45240744D01*
X122047000Y-45240744D01*
X122047000Y-46489994D01*
X122067000Y-46489994D01*
X122067000Y-46743994D01*
X122047000Y-46743994D01*
X122047000Y-47993244D01*
X122205750Y-48151994D01*
X122946309Y-48151994D01*
X123179698Y-48055321D01*
X123358327Y-47876693D01*
X123414139Y-47741950D01*
X123590493Y-47918304D01*
X124154670Y-48151994D01*
X124765330Y-48151994D01*
X125329507Y-47918304D01*
X125761310Y-47486501D01*
X125796314Y-47401994D01*
X126787694Y-47401994D01*
X126865006Y-47417372D01*
X126942318Y-47401994D01*
X126942322Y-47401994D01*
X127171298Y-47356448D01*
X127430959Y-47182947D01*
X127474755Y-47117402D01*
X127669657Y-46922500D01*
X128081710Y-46922500D01*
X128085874Y-46943435D01*
X128280414Y-47234586D01*
X128571565Y-47429126D01*
X128915000Y-47497440D01*
X130165000Y-47497440D01*
X130508435Y-47429126D01*
X130799586Y-47234586D01*
X130994126Y-46943435D01*
X131062440Y-46600000D01*
X131062440Y-45675000D01*
X130994126Y-45331565D01*
X130799586Y-45040414D01*
X130508435Y-44845874D01*
X130165000Y-44777560D01*
X128915000Y-44777560D01*
X128571565Y-44845874D01*
X128280414Y-45040414D01*
X128085874Y-45331565D01*
X128081710Y-45352500D01*
X127421812Y-45352500D01*
X127344500Y-45337122D01*
X127267188Y-45352500D01*
X127267184Y-45352500D01*
X127038208Y-45398046D01*
X126778547Y-45571547D01*
X126734751Y-45637092D01*
X126539849Y-45831994D01*
X125796314Y-45831994D01*
X125761310Y-45747487D01*
X125329507Y-45315684D01*
X124765330Y-45081994D01*
X124154670Y-45081994D01*
X123590493Y-45315684D01*
X123414139Y-45492038D01*
X123358327Y-45357295D01*
X123179698Y-45178667D01*
X122946309Y-45081994D01*
X122205750Y-45081994D01*
X122047000Y-45240744D01*
X121793000Y-45240744D01*
X121634250Y-45081994D01*
X120893691Y-45081994D01*
X120660302Y-45178667D01*
X120481673Y-45357295D01*
X120385000Y-45590684D01*
X119254507Y-45590684D01*
X118979507Y-45315684D01*
X118438120Y-45091434D01*
X118917000Y-45091434D01*
X119260435Y-45023120D01*
X119551586Y-44828580D01*
X119746126Y-44537429D01*
X119782614Y-44353994D01*
X131508837Y-44353994D01*
X132755501Y-45600659D01*
X132755500Y-51620368D01*
X132515625Y-51261369D01*
X132024418Y-50933155D01*
X131591256Y-50846994D01*
X131298744Y-50846994D01*
X130865582Y-50933155D01*
X130374375Y-51261369D01*
X130337555Y-51316473D01*
X130325000Y-51303918D01*
X130325000Y-50440614D01*
X130508435Y-50404126D01*
X130799586Y-50209586D01*
X130994126Y-49918435D01*
X131062440Y-49575000D01*
X131062440Y-48650000D01*
X130994126Y-48306565D01*
X130799586Y-48015414D01*
X130508435Y-47820874D01*
X130165000Y-47752560D01*
X128915000Y-47752560D01*
X128571565Y-47820874D01*
X128280414Y-48015414D01*
X128085874Y-48306565D01*
X128017560Y-48650000D01*
X128017560Y-49575000D01*
X128085874Y-49918435D01*
X128280414Y-50209586D01*
X128571565Y-50404126D01*
X128755001Y-50440614D01*
X128755000Y-51551763D01*
X128739622Y-51629075D01*
X128755000Y-51706387D01*
X128755000Y-51706390D01*
X128800546Y-51935366D01*
X128974047Y-52195028D01*
X129039592Y-52238824D01*
X129633170Y-52832402D01*
X129676966Y-52897947D01*
X129936627Y-53071448D01*
X130165603Y-53116994D01*
X130165607Y-53116994D01*
X130186273Y-53121105D01*
X130374375Y-53402619D01*
X130865582Y-53730833D01*
X131298744Y-53816994D01*
X131591256Y-53816994D01*
X132024418Y-53730833D01*
X132515625Y-53402619D01*
X132755500Y-53043620D01*
X132755500Y-56700367D01*
X132515625Y-56341369D01*
X132234111Y-56153267D01*
X132230000Y-56132601D01*
X132230000Y-56132597D01*
X132184454Y-55903621D01*
X132139072Y-55835702D01*
X132054749Y-55709504D01*
X132054747Y-55709502D01*
X132010953Y-55643960D01*
X131945411Y-55600166D01*
X129402336Y-53057092D01*
X129358540Y-52991547D01*
X129098879Y-52818046D01*
X128869903Y-52772500D01*
X128869899Y-52772500D01*
X128792587Y-52757122D01*
X128715275Y-52772500D01*
X119568290Y-52772500D01*
X119564126Y-52751565D01*
X119369586Y-52460414D01*
X119078435Y-52265874D01*
X118735000Y-52197560D01*
X117485000Y-52197560D01*
X117141565Y-52265874D01*
X116850414Y-52460414D01*
X116655874Y-52751565D01*
X116587560Y-53095000D01*
X116587560Y-54020000D01*
X116655874Y-54363435D01*
X116850414Y-54654586D01*
X117141565Y-54849126D01*
X117485000Y-54917440D01*
X118735000Y-54917440D01*
X119078435Y-54849126D01*
X119369586Y-54654586D01*
X119564126Y-54363435D01*
X119568290Y-54342500D01*
X128467430Y-54342500D01*
X130429479Y-56304550D01*
X130374375Y-56341369D01*
X130175000Y-56639755D01*
X129975625Y-56341369D01*
X129484418Y-56013155D01*
X129051256Y-55926994D01*
X128758744Y-55926994D01*
X128325582Y-56013155D01*
X127834375Y-56341369D01*
X127506161Y-56832576D01*
X127390908Y-57411994D01*
X127506161Y-57991412D01*
X127834375Y-58482619D01*
X128132761Y-58681994D01*
X127834375Y-58881369D01*
X127643526Y-59166994D01*
X127325157Y-59166994D01*
X123799749Y-55641586D01*
X123755953Y-55576041D01*
X123496292Y-55402540D01*
X123267316Y-55356994D01*
X123267312Y-55356994D01*
X123190000Y-55341616D01*
X123112688Y-55356994D01*
X115895157Y-55356994D01*
X112369749Y-51831586D01*
X112325953Y-51766041D01*
X112066292Y-51592540D01*
X111837316Y-51546994D01*
X111837312Y-51546994D01*
X111760000Y-51531616D01*
X111682688Y-51546994D01*
X107792440Y-51546994D01*
X107792440Y-51531994D01*
X107743157Y-51284229D01*
X107602809Y-51074185D01*
X107392765Y-50933837D01*
X107145000Y-50884554D01*
X104945000Y-50884554D01*
X104697235Y-50933837D01*
X104545953Y-51034921D01*
X104504698Y-50993667D01*
X104271309Y-50896994D01*
X103330750Y-50896994D01*
X103172000Y-51055744D01*
X103172000Y-52204994D01*
X103192000Y-52204994D01*
X103192000Y-52458994D01*
X103172000Y-52458994D01*
X103172000Y-53608244D01*
X103330750Y-53766994D01*
X104271309Y-53766994D01*
X104504698Y-53670321D01*
X104545953Y-53629067D01*
X104697235Y-53730151D01*
X104945000Y-53779434D01*
X105260001Y-53779434D01*
X105260000Y-61319682D01*
X105244622Y-61396994D01*
X105260000Y-61474306D01*
X105260000Y-61474309D01*
X105266759Y-61508287D01*
X105305546Y-61703285D01*
X105425124Y-61882245D01*
X105479047Y-61962947D01*
X105544592Y-62006743D01*
X110930251Y-67392402D01*
X110974047Y-67457947D01*
X111233708Y-67631448D01*
X111240457Y-67632790D01*
X111241843Y-67639759D01*
X111382191Y-67849803D01*
X111592235Y-67990151D01*
X111840000Y-68039434D01*
X113840000Y-68039434D01*
X114087765Y-67990151D01*
X114297809Y-67849803D01*
X114438157Y-67639759D01*
X114487440Y-67391994D01*
X114487440Y-66391994D01*
X114464095Y-66274630D01*
X114475000Y-66248303D01*
X114475000Y-65907744D01*
X114316250Y-65748994D01*
X113862322Y-65748994D01*
X113840000Y-65744554D01*
X112693000Y-65744554D01*
X112693000Y-65499434D01*
X113840000Y-65499434D01*
X113862322Y-65494994D01*
X114316250Y-65494994D01*
X114475000Y-65336244D01*
X114475000Y-65136994D01*
X114564843Y-65136994D01*
X119659251Y-70231402D01*
X119703047Y-70296947D01*
X119962708Y-70470448D01*
X120191684Y-70515994D01*
X120191688Y-70515994D01*
X120269000Y-70531372D01*
X120346312Y-70515994D01*
X132129688Y-70515994D01*
X132207000Y-70531372D01*
X132284312Y-70515994D01*
X132284316Y-70515994D01*
X132513292Y-70470448D01*
X132772953Y-70296947D01*
X132816749Y-70231402D01*
X133405911Y-69642241D01*
X133471453Y-69598447D01*
X133515247Y-69532905D01*
X133515249Y-69532903D01*
X133565385Y-69457869D01*
X133644954Y-69338786D01*
X133690500Y-69109810D01*
X133690500Y-69109806D01*
X133705878Y-69032495D01*
X133690500Y-68955184D01*
X133690500Y-66569806D01*
X133705878Y-66492494D01*
X133690500Y-66415182D01*
X133690500Y-66415178D01*
X133644954Y-66186202D01*
X133622462Y-66152540D01*
X133515249Y-65992085D01*
X133515247Y-65992083D01*
X133471453Y-65926541D01*
X133405910Y-65882747D01*
X132904750Y-65381587D01*
X132904748Y-65381584D01*
X132892075Y-65368911D01*
X132959092Y-65031994D01*
X132843839Y-64452576D01*
X132515625Y-63961369D01*
X132196522Y-63748151D01*
X132326358Y-63687177D01*
X132716645Y-63258918D01*
X132886476Y-62848884D01*
X132765155Y-62618994D01*
X131572000Y-62618994D01*
X131572000Y-62638994D01*
X131318000Y-62638994D01*
X131318000Y-62618994D01*
X131298000Y-62618994D01*
X131298000Y-62364994D01*
X131318000Y-62364994D01*
X131318000Y-62344994D01*
X131572000Y-62344994D01*
X131572000Y-62364994D01*
X132765155Y-62364994D01*
X132886476Y-62135104D01*
X132716645Y-61725070D01*
X132326358Y-61296811D01*
X132196522Y-61235837D01*
X132515625Y-61022619D01*
X132843839Y-60531412D01*
X132959092Y-59951994D01*
X132892075Y-59615076D01*
X133910000Y-58597151D01*
X133910000Y-71306994D01*
X103580000Y-71306994D01*
X103580000Y-56211920D01*
X103593909Y-56141994D01*
X103568282Y-56013155D01*
X103538805Y-55864966D01*
X103434928Y-55709504D01*
X103381881Y-55630113D01*
X103147028Y-55473189D01*
X102939926Y-55431994D01*
X102939925Y-55431994D01*
X102870000Y-55418085D01*
X102800074Y-55431994D01*
X100405000Y-55431994D01*
X100405000Y-52617744D01*
X101310000Y-52617744D01*
X101310000Y-53258304D01*
X101406673Y-53491693D01*
X101585302Y-53670321D01*
X101818691Y-53766994D01*
X102759250Y-53766994D01*
X102918000Y-53608244D01*
X102918000Y-52458994D01*
X101468750Y-52458994D01*
X101310000Y-52617744D01*
X100405000Y-52617744D01*
X100405000Y-51405684D01*
X101310000Y-51405684D01*
X101310000Y-52046244D01*
X101468750Y-52204994D01*
X102918000Y-52204994D01*
X102918000Y-51055744D01*
X102759250Y-50896994D01*
X101818691Y-50896994D01*
X101585302Y-50993667D01*
X101406673Y-51172295D01*
X101310000Y-51405684D01*
X100405000Y-51405684D01*
X100405000Y-46902744D01*
X107685000Y-46902744D01*
X107685000Y-47643304D01*
X107781673Y-47876693D01*
X107960302Y-48055321D01*
X108193691Y-48151994D01*
X108934250Y-48151994D01*
X109093000Y-47993244D01*
X109093000Y-46743994D01*
X107843750Y-46743994D01*
X107685000Y-46902744D01*
X100405000Y-46902744D01*
X100405000Y-45590684D01*
X107685000Y-45590684D01*
X107685000Y-46331244D01*
X107843750Y-46489994D01*
X109093000Y-46489994D01*
X109093000Y-45240744D01*
X108934250Y-45081994D01*
X108193691Y-45081994D01*
X107960302Y-45178667D01*
X107781673Y-45357295D01*
X107685000Y-45590684D01*
X100405000Y-45590684D01*
X100405000Y-42881994D01*
X112891212Y-42881994D01*
X112775597Y-42959245D01*
X112775597Y-42959245D01*
G37*
X112775597Y-42959245D02*
X112775595Y-42959247D01*
X112710053Y-43003041D01*
X112666259Y-43068583D01*
X111259590Y-44475253D01*
X111194048Y-44519047D01*
X111150254Y-44584589D01*
X111150251Y-44584592D01*
X111020546Y-44778709D01*
X110959622Y-45085000D01*
X110975001Y-45162316D01*
X110975001Y-45280680D01*
X110890493Y-45315684D01*
X110714139Y-45492038D01*
X110658327Y-45357295D01*
X110479698Y-45178667D01*
X110246309Y-45081994D01*
X109505750Y-45081994D01*
X109347000Y-45240744D01*
X109347000Y-46489994D01*
X109367000Y-46489994D01*
X109367000Y-46743994D01*
X109347000Y-46743994D01*
X109347000Y-47993244D01*
X109505750Y-48151994D01*
X110246309Y-48151994D01*
X110479698Y-48055321D01*
X110658327Y-47876693D01*
X110714139Y-47741950D01*
X110890493Y-47918304D01*
X111454670Y-48151994D01*
X112065330Y-48151994D01*
X112629507Y-47918304D01*
X113061310Y-47486501D01*
X113295000Y-46922324D01*
X113295000Y-46902744D01*
X114035000Y-46902744D01*
X114035000Y-47643304D01*
X114131673Y-47876693D01*
X114310302Y-48055321D01*
X114543691Y-48151994D01*
X115284250Y-48151994D01*
X115443000Y-47993244D01*
X115443000Y-46743994D01*
X114193750Y-46743994D01*
X114035000Y-46902744D01*
X113295000Y-46902744D01*
X113295000Y-46311664D01*
X113061310Y-45747487D01*
X112634490Y-45320667D01*
X113601164Y-44353994D01*
X114151386Y-44353994D01*
X114187874Y-44537429D01*
X114382414Y-44828580D01*
X114673565Y-45023120D01*
X114969542Y-45081994D01*
X114543691Y-45081994D01*
X114310302Y-45178667D01*
X114131673Y-45357295D01*
X114035000Y-45590684D01*
X114035000Y-46331244D01*
X114193750Y-46489994D01*
X115443000Y-46489994D01*
X115443000Y-46469994D01*
X115697000Y-46469994D01*
X115697000Y-46489994D01*
X115717000Y-46489994D01*
X115717000Y-46743994D01*
X115697000Y-46743994D01*
X115697000Y-47993244D01*
X115855750Y-48151994D01*
X116596309Y-48151994D01*
X116829698Y-48055321D01*
X117008327Y-47876693D01*
X117064139Y-47741950D01*
X117240493Y-47918304D01*
X117325001Y-47953308D01*
X117325000Y-49254386D01*
X117141565Y-49290874D01*
X116850414Y-49485414D01*
X116655874Y-49776565D01*
X116587560Y-50120000D01*
X116587560Y-51045000D01*
X116655874Y-51388435D01*
X116850414Y-51679586D01*
X117141565Y-51874126D01*
X117485000Y-51942440D01*
X118735000Y-51942440D01*
X119078435Y-51874126D01*
X119369586Y-51679586D01*
X119564126Y-51388435D01*
X119632440Y-51045000D01*
X119632440Y-50120000D01*
X119564126Y-49776565D01*
X119369586Y-49485414D01*
X119078435Y-49290874D01*
X118895000Y-49254386D01*
X118895000Y-47953308D01*
X118979507Y-47918304D01*
X119411310Y-47486501D01*
X119645000Y-46922324D01*
X119645000Y-46902744D01*
X120385000Y-46902744D01*
X120385000Y-47643304D01*
X120481673Y-47876693D01*
X120660302Y-48055321D01*
X120893691Y-48151994D01*
X121634250Y-48151994D01*
X121793000Y-47993244D01*
X121793000Y-46743994D01*
X120543750Y-46743994D01*
X120385000Y-46902744D01*
X119645000Y-46902744D01*
X119645000Y-46311664D01*
X119411310Y-45747487D01*
X119254507Y-45590684D01*
X120385000Y-45590684D01*
X120385000Y-46331244D01*
X120543750Y-46489994D01*
X121793000Y-46489994D01*
X121793000Y-45240744D01*
X122047000Y-45240744D01*
X122047000Y-46489994D01*
X122067000Y-46489994D01*
X122067000Y-46743994D01*
X122047000Y-46743994D01*
X122047000Y-47993244D01*
X122205750Y-48151994D01*
X122946309Y-48151994D01*
X123179698Y-48055321D01*
X123358327Y-47876693D01*
X123414139Y-47741950D01*
X123590493Y-47918304D01*
X124154670Y-48151994D01*
X124765330Y-48151994D01*
X125329507Y-47918304D01*
X125761310Y-47486501D01*
X125796314Y-47401994D01*
X126787694Y-47401994D01*
X126865006Y-47417372D01*
X126942318Y-47401994D01*
X126942322Y-47401994D01*
X127171298Y-47356448D01*
X127430959Y-47182947D01*
X127474755Y-47117402D01*
X127669657Y-46922500D01*
X128081710Y-46922500D01*
X128085874Y-46943435D01*
X128280414Y-47234586D01*
X128571565Y-47429126D01*
X128915000Y-47497440D01*
X130165000Y-47497440D01*
X130508435Y-47429126D01*
X130799586Y-47234586D01*
X130994126Y-46943435D01*
X131062440Y-46600000D01*
X131062440Y-45675000D01*
X130994126Y-45331565D01*
X130799586Y-45040414D01*
X130508435Y-44845874D01*
X130165000Y-44777560D01*
X128915000Y-44777560D01*
X128571565Y-44845874D01*
X128280414Y-45040414D01*
X128085874Y-45331565D01*
X128081710Y-45352500D01*
X127421812Y-45352500D01*
X127344500Y-45337122D01*
X127267188Y-45352500D01*
X127267184Y-45352500D01*
X127038208Y-45398046D01*
X126778547Y-45571547D01*
X126734751Y-45637092D01*
X126539849Y-45831994D01*
X125796314Y-45831994D01*
X125761310Y-45747487D01*
X125329507Y-45315684D01*
X124765330Y-45081994D01*
X124154670Y-45081994D01*
X123590493Y-45315684D01*
X123414139Y-45492038D01*
X123358327Y-45357295D01*
X123179698Y-45178667D01*
X122946309Y-45081994D01*
X122205750Y-45081994D01*
X122047000Y-45240744D01*
X121793000Y-45240744D01*
X121634250Y-45081994D01*
X120893691Y-45081994D01*
X120660302Y-45178667D01*
X120481673Y-45357295D01*
X120385000Y-45590684D01*
X119254507Y-45590684D01*
X118979507Y-45315684D01*
X118438120Y-45091434D01*
X118917000Y-45091434D01*
X119260435Y-45023120D01*
X119551586Y-44828580D01*
X119746126Y-44537429D01*
X119782614Y-44353994D01*
X131508837Y-44353994D01*
X132755501Y-45600659D01*
X132755500Y-51620368D01*
X132515625Y-51261369D01*
X132024418Y-50933155D01*
X131591256Y-50846994D01*
X131298744Y-50846994D01*
X130865582Y-50933155D01*
X130374375Y-51261369D01*
X130337555Y-51316473D01*
X130325000Y-51303918D01*
X130325000Y-50440614D01*
X130508435Y-50404126D01*
X130799586Y-50209586D01*
X130994126Y-49918435D01*
X131062440Y-49575000D01*
X131062440Y-48650000D01*
X130994126Y-48306565D01*
X130799586Y-48015414D01*
X130508435Y-47820874D01*
X130165000Y-47752560D01*
X128915000Y-47752560D01*
X128571565Y-47820874D01*
X128280414Y-48015414D01*
X128085874Y-48306565D01*
X128017560Y-48650000D01*
X128017560Y-49575000D01*
X128085874Y-49918435D01*
X128280414Y-50209586D01*
X128571565Y-50404126D01*
X128755001Y-50440614D01*
X128755000Y-51551763D01*
X128739622Y-51629075D01*
X128755000Y-51706387D01*
X128755000Y-51706390D01*
X128800546Y-51935366D01*
X128974047Y-52195028D01*
X129039592Y-52238824D01*
X129633170Y-52832402D01*
X129676966Y-52897947D01*
X129936627Y-53071448D01*
X130165603Y-53116994D01*
X130165607Y-53116994D01*
X130186273Y-53121105D01*
X130374375Y-53402619D01*
X130865582Y-53730833D01*
X131298744Y-53816994D01*
X131591256Y-53816994D01*
X132024418Y-53730833D01*
X132515625Y-53402619D01*
X132755500Y-53043620D01*
X132755500Y-56700367D01*
X132515625Y-56341369D01*
X132234111Y-56153267D01*
X132230000Y-56132601D01*
X132230000Y-56132597D01*
X132184454Y-55903621D01*
X132139072Y-55835702D01*
X132054749Y-55709504D01*
X132054747Y-55709502D01*
X132010953Y-55643960D01*
X131945411Y-55600166D01*
X129402336Y-53057092D01*
X129358540Y-52991547D01*
X129098879Y-52818046D01*
X128869903Y-52772500D01*
X128869899Y-52772500D01*
X128792587Y-52757122D01*
X128715275Y-52772500D01*
X119568290Y-52772500D01*
X119564126Y-52751565D01*
X119369586Y-52460414D01*
X119078435Y-52265874D01*
X118735000Y-52197560D01*
X117485000Y-52197560D01*
X117141565Y-52265874D01*
X116850414Y-52460414D01*
X116655874Y-52751565D01*
X116587560Y-53095000D01*
X116587560Y-54020000D01*
X116655874Y-54363435D01*
X116850414Y-54654586D01*
X117141565Y-54849126D01*
X117485000Y-54917440D01*
X118735000Y-54917440D01*
X119078435Y-54849126D01*
X119369586Y-54654586D01*
X119564126Y-54363435D01*
X119568290Y-54342500D01*
X128467430Y-54342500D01*
X130429479Y-56304550D01*
X130374375Y-56341369D01*
X130175000Y-56639755D01*
X129975625Y-56341369D01*
X129484418Y-56013155D01*
X129051256Y-55926994D01*
X128758744Y-55926994D01*
X128325582Y-56013155D01*
X127834375Y-56341369D01*
X127506161Y-56832576D01*
X127390908Y-57411994D01*
X127506161Y-57991412D01*
X127834375Y-58482619D01*
X128132761Y-58681994D01*
X127834375Y-58881369D01*
X127643526Y-59166994D01*
X127325157Y-59166994D01*
X123799749Y-55641586D01*
X123755953Y-55576041D01*
X123496292Y-55402540D01*
X123267316Y-55356994D01*
X123267312Y-55356994D01*
X123190000Y-55341616D01*
X123112688Y-55356994D01*
X115895157Y-55356994D01*
X112369749Y-51831586D01*
X112325953Y-51766041D01*
X112066292Y-51592540D01*
X111837316Y-51546994D01*
X111837312Y-51546994D01*
X111760000Y-51531616D01*
X111682688Y-51546994D01*
X107792440Y-51546994D01*
X107792440Y-51531994D01*
X107743157Y-51284229D01*
X107602809Y-51074185D01*
X107392765Y-50933837D01*
X107145000Y-50884554D01*
X104945000Y-50884554D01*
X104697235Y-50933837D01*
X104545953Y-51034921D01*
X104504698Y-50993667D01*
X104271309Y-50896994D01*
X103330750Y-50896994D01*
X103172000Y-51055744D01*
X103172000Y-52204994D01*
X103192000Y-52204994D01*
X103192000Y-52458994D01*
X103172000Y-52458994D01*
X103172000Y-53608244D01*
X103330750Y-53766994D01*
X104271309Y-53766994D01*
X104504698Y-53670321D01*
X104545953Y-53629067D01*
X104697235Y-53730151D01*
X104945000Y-53779434D01*
X105260001Y-53779434D01*
X105260000Y-61319682D01*
X105244622Y-61396994D01*
X105260000Y-61474306D01*
X105260000Y-61474309D01*
X105266759Y-61508287D01*
X105305546Y-61703285D01*
X105425124Y-61882245D01*
X105479047Y-61962947D01*
X105544592Y-62006743D01*
X110930251Y-67392402D01*
X110974047Y-67457947D01*
X111233708Y-67631448D01*
X111240457Y-67632790D01*
X111241843Y-67639759D01*
X111382191Y-67849803D01*
X111592235Y-67990151D01*
X111840000Y-68039434D01*
X113840000Y-68039434D01*
X114087765Y-67990151D01*
X114297809Y-67849803D01*
X114438157Y-67639759D01*
X114487440Y-67391994D01*
X114487440Y-66391994D01*
X114464095Y-66274630D01*
X114475000Y-66248303D01*
X114475000Y-65907744D01*
X114316250Y-65748994D01*
X113862322Y-65748994D01*
X113840000Y-65744554D01*
X112693000Y-65744554D01*
X112693000Y-65499434D01*
X113840000Y-65499434D01*
X113862322Y-65494994D01*
X114316250Y-65494994D01*
X114475000Y-65336244D01*
X114475000Y-65136994D01*
X114564843Y-65136994D01*
X119659251Y-70231402D01*
X119703047Y-70296947D01*
X119962708Y-70470448D01*
X120191684Y-70515994D01*
X120191688Y-70515994D01*
X120269000Y-70531372D01*
X120346312Y-70515994D01*
X132129688Y-70515994D01*
X132207000Y-70531372D01*
X132284312Y-70515994D01*
X132284316Y-70515994D01*
X132513292Y-70470448D01*
X132772953Y-70296947D01*
X132816749Y-70231402D01*
X133405911Y-69642241D01*
X133471453Y-69598447D01*
X133515247Y-69532905D01*
X133515249Y-69532903D01*
X133565385Y-69457869D01*
X133644954Y-69338786D01*
X133690500Y-69109810D01*
X133690500Y-69109806D01*
X133705878Y-69032495D01*
X133690500Y-68955184D01*
X133690500Y-66569806D01*
X133705878Y-66492494D01*
X133690500Y-66415182D01*
X133690500Y-66415178D01*
X133644954Y-66186202D01*
X133622462Y-66152540D01*
X133515249Y-65992085D01*
X133515247Y-65992083D01*
X133471453Y-65926541D01*
X133405910Y-65882747D01*
X132904750Y-65381587D01*
X132904748Y-65381584D01*
X132892075Y-65368911D01*
X132959092Y-65031994D01*
X132843839Y-64452576D01*
X132515625Y-63961369D01*
X132196522Y-63748151D01*
X132326358Y-63687177D01*
X132716645Y-63258918D01*
X132886476Y-62848884D01*
X132765155Y-62618994D01*
X131572000Y-62618994D01*
X131572000Y-62638994D01*
X131318000Y-62638994D01*
X131318000Y-62618994D01*
X131298000Y-62618994D01*
X131298000Y-62364994D01*
X131318000Y-62364994D01*
X131318000Y-62344994D01*
X131572000Y-62344994D01*
X131572000Y-62364994D01*
X132765155Y-62364994D01*
X132886476Y-62135104D01*
X132716645Y-61725070D01*
X132326358Y-61296811D01*
X132196522Y-61235837D01*
X132515625Y-61022619D01*
X132843839Y-60531412D01*
X132959092Y-59951994D01*
X132892075Y-59615076D01*
X133910000Y-58597151D01*
X133910000Y-71306994D01*
X103580000Y-71306994D01*
X103580000Y-56211920D01*
X103593909Y-56141994D01*
X103568282Y-56013155D01*
X103538805Y-55864966D01*
X103434928Y-55709504D01*
X103381881Y-55630113D01*
X103147028Y-55473189D01*
X102939926Y-55431994D01*
X102939925Y-55431994D01*
X102870000Y-55418085D01*
X102800074Y-55431994D01*
X100405000Y-55431994D01*
X100405000Y-52617744D01*
X101310000Y-52617744D01*
X101310000Y-53258304D01*
X101406673Y-53491693D01*
X101585302Y-53670321D01*
X101818691Y-53766994D01*
X102759250Y-53766994D01*
X102918000Y-53608244D01*
X102918000Y-52458994D01*
X101468750Y-52458994D01*
X101310000Y-52617744D01*
X100405000Y-52617744D01*
X100405000Y-51405684D01*
X101310000Y-51405684D01*
X101310000Y-52046244D01*
X101468750Y-52204994D01*
X102918000Y-52204994D01*
X102918000Y-51055744D01*
X102759250Y-50896994D01*
X101818691Y-50896994D01*
X101585302Y-50993667D01*
X101406673Y-51172295D01*
X101310000Y-51405684D01*
X100405000Y-51405684D01*
X100405000Y-46902744D01*
X107685000Y-46902744D01*
X107685000Y-47643304D01*
X107781673Y-47876693D01*
X107960302Y-48055321D01*
X108193691Y-48151994D01*
X108934250Y-48151994D01*
X109093000Y-47993244D01*
X109093000Y-46743994D01*
X107843750Y-46743994D01*
X107685000Y-46902744D01*
X100405000Y-46902744D01*
X100405000Y-45590684D01*
X107685000Y-45590684D01*
X107685000Y-46331244D01*
X107843750Y-46489994D01*
X109093000Y-46489994D01*
X109093000Y-45240744D01*
X108934250Y-45081994D01*
X108193691Y-45081994D01*
X107960302Y-45178667D01*
X107781673Y-45357295D01*
X107685000Y-45590684D01*
X100405000Y-45590684D01*
X100405000Y-42881994D01*
X112891212Y-42881994D01*
X112775597Y-42959245D01*
G04 #@! TD*
M02*
